<?xml version="1.0" encoding="utf-8"?>
<!-- Generator: Adobe Illustrator 27.9.0, SVG Export Plug-In . SVG Version: 6.00 Build 0)  -->
<svg version="1.1" id="Capa_1" xmlns="http://www.w3.org/2000/svg" xmlns:xlink="http://www.w3.org/1999/xlink" x="0px" y="0px"
	 viewBox="0 0 1366 768" style="enable-background:new 0 0 1366 768;" xml:space="preserve">
<style type="text/css">
	.st0{fill:#FFFFFF;stroke:#1A1B3D;stroke-miterlimit:10;}
	.st1{fill:url(#SVGID_1_);}
	.st2{fill:url(#SVGID_00000002366844931928102800000000205933721513747584_);}
	.st3{fill:#FFFFFF;}
	.st4{fill:url(#SVGID_00000033366300297407189940000015244321494692413096_);}
</style>
<polygon points="1366,0 1366,768.23 -7,768.23 -7,599.72 -7,0 "/>
<g>
	<path class="st0" d="M724.47,371.27"/>
</g>
<g>
	
		<linearGradient id="SVGID_1_" gradientUnits="userSpaceOnUse" x1="400.3123" y1="370.9352" x2="400.3123" y2="370.9352" gradientTransform="matrix(1 0 0 -1 0 769.3228)">
		<stop  offset="0" style="stop-color:#FFFFFF"/>
		<stop  offset="0.0536" style="stop-color:#F7FAFE"/>
		<stop  offset="0.1428" style="stop-color:#E2ECF9"/>
		<stop  offset="0.2565" style="stop-color:#BCD6F1"/>
		<stop  offset="0.3904" style="stop-color:#81B7E4"/>
		<stop  offset="0.5397" style="stop-color:#0093D3"/>
		<stop  offset="0.5506" style="stop-color:#0091D2"/>
		<stop  offset="0.5562" style="stop-color:#007AC0"/>
		<stop  offset="0.809" style="stop-color:#0069A4"/>
		<stop  offset="0.9944" style="stop-color:#00588A"/>
	</linearGradient>
	<path class="st1" d="M400.31,398.39"/>
	<g>
		<g>
			
				<linearGradient id="SVGID_00000139979422288724824290000004697792007958825904_" gradientUnits="userSpaceOnUse" x1="218.359" y1="384.1888" x2="441.6629" y2="389.9898" gradientTransform="matrix(1 9.629252e-03 9.629252e-03 -1 -29.3244 781.592)">
				<stop  offset="0" style="stop-color:#FFFFFF"/>
				<stop  offset="0.1463" style="stop-color:#D5EEFC"/>
				<stop  offset="0.3532" style="stop-color:#94D5F7"/>
				<stop  offset="0.5042" style="stop-color:#5AC5F2"/>
				<stop  offset="0.5824" style="stop-color:#38BFF0"/>
				<stop  offset="0.705" style="stop-color:#2DBCED"/>
				<stop  offset="0.807" style="stop-color:#00B2E5"/>
				<stop  offset="0.9012" style="stop-color:#00A3D6"/>
				<stop  offset="0.9908" style="stop-color:#008FC2"/>
				<stop  offset="0.9944" style="stop-color:#008EC2"/>
			</linearGradient>
			<path style="fill:url(#SVGID_00000139979422288724824290000004697792007958825904_);" d="M392.88,301
				c-5.57-0.46-11.61-0.46-16.72-0.46c-6.5,0-13,0-19.97,0c-12.08,0-24.15,0-36.23,0c-13,0-26.01,0-39.01,0c-11.61,0-23.69,0-35.3,0
				c-8.36,0-16.26,0-24.62,0c-2.32,0-5.11,0-7.43,0c-17.65,0-28.33,19.04-19.04,33.9l95.21,151.41c5.11,7.9,14.86,12.08,24.15,9.75
				c10.68-2.32,18.58-13,14.86-23.69c-1.86-5.57-5.57-9.75-8.36-14.4c-2.32-3.72-4.64-7.43-6.97-11.15
				c-5.57-8.82-11.15-18.11-17.18-26.94c-8.82-13.93-17.65-27.87-26.47-42.27c-0.46-0.46-0.93-1.39-0.93-1.86
				c-4.18-6.5-4.64-14.86-0.93-21.83c1.86-3.25,4.18-6.04,7.43-8.36c3.72-2.79,7.9-3.25,12.08-3.72c6.5,0,12.54-0.46,19.04-0.46
				c13.93,0,28.33-0.46,42.27-0.46c1.39,0,3.25,0,4.18,1.39c0.46,0.93,0.46,1.86,0,2.79c-1.86,3.25-5.57,6.04-7.9,8.82
				c-2.79,3.25-5.57,6.5-7.9,9.75c-4.64,6.97-6.04,14.86-1.39,22.29c4.18,6.97,13.47,10.22,20.9,7.9
				c9.29-2.79,16.72-12.54,23.22-19.51c7.9-8.36,14.86-17.18,22.29-26.01c0.93-1.39,2.32-2.79,3.25-4.18
				c2.79-3.25,5.11-6.97,6.97-10.68c5.11-9.75,2.79-20.9-6.5-27.87C401.71,302.86,397.53,301.46,392.88,301z"/>
		</g>
	</g>
	<g>
		<path class="st3" d="M628.6,337.08c-33.91,0-61.31,27.4-61.31,61.31s27.4,61.31,61.31,61.31c33.91,0,61.31-27.4,61.31-61.31
			S662.5,337.08,628.6,337.08z M628.6,436.94c-21.36,0-38.55-17.18-38.55-38.55s17.18-38.55,38.55-38.55s38.55,17.18,38.55,38.55
			C667.61,419.75,649.96,436.94,628.6,436.94z"/>
	</g>
	<g>
		<path class="st3" d="M1005.73,430.69c-6.97,4.18-15.33,6.5-24.15,5.57c-17.65-1.86-32.05-15.79-33.91-33.44
			c-2.32-22.76,15.33-42.27,37.62-42.27c6.97,0,13.47,1.86,19.04,5.11c5.11,2.79,11.15,1.86,14.86-2.79l0,0
			c3.72-5.11,2.32-12.54-3.25-16.26c-9.75-6.04-21.36-8.82-33.44-8.36c-30.19,1.39-55.27,25.54-57.13,55.73
			c-2.32,35.3,25.54,64.56,59.91,64.56c10.68,0,20.9-2.79,29.72-7.9c6.5-3.72,7.9-12.08,3.72-17.65l0,0
			C1015.95,428.83,1010.38,427.91,1005.73,430.69z"/>
	</g>
	<g>
		<path class="st0" d="M939.54,398.39"/>
	</g>
	<path class="st3" d="M1118.94,450c0,6.04-5.11,10.22-10.68,10.22h-1.86c-5.57-0.93-9.29-6.04-9.29-11.61
		c0.46-6.5-0.93-13-4.18-19.04c-7.43-13.47-20.9-20.44-35.3-19.51v36.23c0,6.97-5.57,12.54-12.54,12.54
		c-6.97,0-12.54-5.57-12.54-12.54v-95.21c0-6.97,5.57-12.54,12.54-12.54c6.97,0,12.54,5.57,12.54,12.54v36.23
		c15.33-1.86,24.62-12.54,28.33-19.51c3.25-5.57,4.18-11.15,4.18-11.15c0.46-2.79,0.46-5.57,0.46-8.36
		c-0.46-5.57,3.72-10.68,9.29-11.61c6.5-0.93,12.54,3.72,13,10.22c0,4.64,0,9.29-0.93,13.47c-0.93,6.04-3.25,13-7.43,20.44
		c-3.25,5.57-8.36,11.15-14.4,15.33c8.36,5.11,15.33,12.08,20.44,20.44C1117.08,427.24,1119.41,438.85,1118.94,450z"/>
	<g>
		<g>
			<path class="st3" d="M923.63,439.15l-52.02-94.75c-5.11-9.29-18.58-9.29-23.69,0l-52.02,94.75c-2.79,5.11-1.86,11.15,1.86,15.79
				c4.18,4.64,12.08,6.04,17.18,0.93c2.32-2.32,3.25-5.57,5.11-8.82c1.39-2.32,2.79-4.64,3.72-6.97c3.25-5.57,6.04-11.15,9.29-16.72
				c4.64-8.82,9.75-17.65,14.4-26.47c0-0.46,0.46-0.93,0.46-0.93c5.11-9.29,18.58-9.29,23.69,0c3.72,6.97,7.9,14.4,11.61,21.36
				c4.18,7.43,8.36,14.86,12.54,22.29c2.79,5.57,4.64,12.08,9.29,16.72c5.11,4.64,12.54,3.72,16.72-1.39
				C925.48,450.29,926.41,444.26,923.63,439.15z"/>
		</g>
		<path class="st3" d="M872.68,437.98h14.86h25.08c6.04,0,10.68,4.64,10.68,10.68l0,0c0,6.04-4.64,10.68-10.68,10.68h-39.94
			c-6.04,0-10.68-4.64-10.68-10.68l0,0C862,443.09,866.64,437.98,872.68,437.98z"/>
	</g>
	<g>
		<g>
			<path class="st3" d="M819.25,357.63l-52.02,94.75c-5.11,9.29-18.58,9.29-23.69,0l-52.02-94.75c-2.79-5.11-1.86-11.15,1.86-15.79
				c4.18-4.64,12.08-6.04,17.18-0.93c2.32,2.32,3.25,5.57,5.11,8.82c1.39,2.32,2.79,4.64,3.72,6.97c3.25,5.57,6.04,11.15,9.29,16.72
				c4.64,8.82,9.75,17.65,14.4,26.47c0,0.46,0.46,0.93,0.46,0.93c5.11,9.29,18.58,9.29,23.69,0c3.72-6.97,7.9-14.4,11.61-21.36
				c4.18-7.43,8.36-14.86,12.54-22.29c2.79-5.57,4.64-12.08,9.29-16.72c5.11-4.64,12.54-3.72,16.72,1.39
				C821.11,346.48,822.04,352.98,819.25,357.63z"/>
		</g>
		<path class="st3" d="M766.3,337.43h14.86h25.08c6.04,0,10.68,4.64,10.68,10.68l0,0c0,6.04-4.64,10.68-10.68,10.68H766.3
			c-6.04,0-10.68-4.64-10.68-10.68l0,0C755.15,342.08,760.26,337.43,766.3,337.43z"/>
	</g>
	
		<linearGradient id="SVGID_00000047747455543507344490000011704838345413934998_" gradientUnits="userSpaceOnUse" x1="370.1229" y1="370.9352" x2="370.1229" y2="370.9352" gradientTransform="matrix(1 0 0 -1 0 769.3228)">
		<stop  offset="0" style="stop-color:#FFFFFF"/>
		<stop  offset="0.0929" style="stop-color:#F8FCFF"/>
		<stop  offset="0.2474" style="stop-color:#E2F3FE"/>
		<stop  offset="0.4446" style="stop-color:#BCE4FA"/>
		<stop  offset="0.6767" style="stop-color:#7ACDF4"/>
		<stop  offset="0.9354" style="stop-color:#00B0EB"/>
		<stop  offset="0.9944" style="stop-color:#00A9E8"/>
	</linearGradient>
	<path style="fill:url(#SVGID_00000047747455543507344490000011704838345413934998_);" d="M370.12,398.39"/>
	<path class="st3" d="M555.3,350.09c0,0,0,90.57,0,90.57c0,6.42-0.79,13.6-7,17.06c-2.66,1.48-5.79,1.95-8.83,1.77
		c-3.34-0.2-7.12-1.08-9.92-2.94c-8.05-5.36-13.1-14.14-18.89-21.63c-5.7-7.38-11.29-14.84-16.77-22.39
		c-4.15-5.72-8.37-14.29-15.68-16.45c-3.18-0.91-5.94-0.71-8.75,1.17c-2.49,1.67-3.77,4.01-4.11,7.01
		c-0.49,4.33-0.14,8.83-0.14,13.19c0,3.76,0,7.53,0,11.29c0,5.6,0,11.2,0,17.03c0,4.58,0.07,10.3-4.64,12.71
		c-1.51,0.77-3.22,1.1-4.91,1.23c-4.31,0.33-10.22-0.16-12.75-4.19c-1.86-2.32-1.86-5.57-1.86-8.82v-90.57
		c0-5.57,0.46-11.15,4.64-15.33c2.33-2.34,5.62-3.48,8.88-3.5c4.88-0.03,9.64,1.68,13.64,4.41c5.02,3.44,8.32,8.91,11.97,13.68
		c10.05,13.15,20.38,26.07,30.66,39.04c2.63,3.32,5.85,6.95,10.45,6.93c3.48-0.02,7.03-2.06,8.46-5.29
		c1.39-2.32,1.39-5.57,1.39-8.36c0,0,0-36.62,0-36.69c0-6.66,2.66-13.76,10.28-14.19C549.3,336.38,555.3,342.33,555.3,350.09z"/>
</g>
</svg>
